<svg width="32" height="32" viewBox="0 0 32 32" fill="none" xmlns="http://www.w3.org/2000/svg"> <path d="M15.9961 15.9961L11.9152 16.282C7.86076 17.9021 5 21.360111 5 26.5001V30.0001H27V26.5001C27 21.886 24.1514 17.9306 20.1188 16.2987L15.9961 15.9961Z" fill="#433B6B"/> <path d="M18.71 16.1201H13.29L13.3 30H18.71V16.1201Z" fill="#D3D3D3"/> <path d="M18.8744 15.8802L18.71 16.04V29.9902L21.46 22.13C21.58 21.77 21.49 21.38 21.22 21.12L19.86 19.79C19.69 19.62 19.81 19.34 20.05 19.34H21.1C21.31 19.34 21.45 19.12 21.36 18.93L20.13 16.31C20.1287 16.3072 20.1274 16.3044 20.1261 16.3016C19.7203 16.1371 19.3025 15.996 18.8744 15.8802Z" fill="#8D65C5"/> <path d="M11.9127 16.283C11.9118 16.2853 11.9109 16.2876 11.91 16.29L10.64 18.98C10.55 19.17 10.7 19.39 10.91 19.39H11.96C12.2 19.39 12.31 19.68 12.15 19.84L10.79 21.17C10.53 21.43 10.43 21.82 10.56 22.17L13.29 29.99H13.3V16.09L12.875 15.9494C12.5476 16.0461 12.2266 16.1575 11.9127 16.283Z" fill="#8D65C5"/> <path d="M15.9901 18.6801L14.3101 19.0001L15.2901 21.1101L13.9301 30H18.0401L16.6901 21.1101L17.6601 19.0001L15.9901 18.6801Z" fill="#321B41"/> <path d="M16 15.3101H13.29V20.0501C13.29 20.3601 13.65 20.5401 13.9 20.3401L16 18.6701L18.1 20.3401C18.35 20.5401 18.71 20.3601 18.71 20.0501V15.3101H16V15.3101Z" fill="#E6E6E6"/> <path d="M12.7701 10.59C12.7701 11.5124 12.0224 12.26 11.1001 12.26C10.1777 12.26 9.43005 11.5124 9.43005 10.59C9.43005 9.66773 10.1777 8.92004 11.1001 8.92004C12.0224 8.92004 12.7701 9.66773 12.7701 10.59Z" fill="#F4C6AD"/></svg>