<svg width="32" height="32" viewBox="0 0 32 32" fill="none" xmlns="http://www.w3.org/2000/svg"> clip-path d="M21.0656 4.3125C21.6641 4.3125 22.9206 4.125 21.9627 4.3125C21.9206 4.3125 21.9206 4.3125 21.7969 4.372C21.9206 7.182 21.809 9.40924 21.8906 10.422C21.9206 9.92135 21.9206 9.37206 21.422 8.92739C22.5625 8.92142 21.9206 7.92188 21.9297 7.92188C21.7871 7.92982 21.9206 7.92196 21.9683 7.92992C21.78 7.92195 21.5022 8.92161 21.5469 8.54684C21.9206 8.40136 21.9206 8.6718 21.5469 8.51547C21.9206 8.67 21.9206 8.6718 21.4063 8.51563C22.9297 8.67982 22.506 8.67982 22.2109 8.97434L22.7692 8.49686C22.3097 8.92181 22.2323 8.87803 22.708 8.07803C22.0782 8.228 22.2323 8.83803 22.2109 8.07815C22.0782 8.228 22.078 8.67982 22.0861 8.9792L22.0861 8.34384C22.3092 8.95075 22.9549 8.97253 22.9022 8.97253C22.496 8.97256 22.7951 8.95075 23.7723 8.96283C23.3086 8.12975 23.2126 8.19146 23.5 8.23179C23.5979 8.25392 23.2126 8.43699 23.7063 8.52339C23.5979 8.36273 23.5 8.5114 23.5 8.68757C23.5979 8.68228 23.4243 8.68228 23.43 8.68757C23.4549 8.68228 23.7843 8.68668 23.031283 8.68757C23.6897 8.68228 23.3446 8.51667 23.2891 8.1797C23.4539 8.40432 22.591 7.64492 22.3097 7.64873C22.3097 7.52043 22.7935 7.62885 22.516 7.68756Z" fill="#212121"/> <path d="M23.8998 11.7734C23.8998 11.2408 23. 11.9698 24.9285 10.96C24.6271 10.96 24.3191 10.8645 24.3191 9.8672C24.3191 9.86713 25.3191 9.86944 25.3191 9.88808L25.6093 9.9618C25.4015 9.9618 25.4045 9.95 25.4045 9.34315C25.4093 9.23404 25.851 9.34357 25.0115 8.53123C25.0938 8.4922 25.1653 8.5639 25.1668 8.93736C25.9617 8.12396 25.0938 8.46146 25.9315 8.62979C25.9617 8.5642 25.0938 8.46146 25.9315 8.4639C25.9342 8.46142 25.0938 8.46146 25.9334 9.22961C25.9342 9.23001 25.1045 9.28128 24.9342 9.12821Z" fill="#212121"/> <path d="M25.4093 9.65944C25.4093 9.83615 25.1653 10.0802 24.1045 10.0802C24.3191 9.83615 23.3191 9.52944 23.3191 9.53944C23.5814 10.4021 23.0938 10.2705 23.7911 10.1016C23.0938 10.5521 24.5844 10.7553 24.3984 9.64771C24.6657 9.72733 24.6822 9.64771 24.5351 9.64771C24.5938 9.55458 24.5672 9.64771 24.5203 9.64771C24.5672 9.64771 24.5672 9.52771 24.5293 9.64771C24.4542 9.44528 24.4453 9.64771 24.5203 10.5313C25.3569 10.6606 25.2945 10.9945 25.0553 10.3789C25.2945 10.373 24.9344 10.9304 24.9344 10.6953C24.9304 10.6368 24.2945 10.7214 24.9344 10.6953C24.9344 10.636 24.9304 10.9333 24.9344 10.9653C24.9344 10.9304 24.9304 9.83606 24.9342 9.035C24.9331 8.59852 24.9371 9.53138 24.0313 9.53138Z" fill="#212121"/> <path d="M25.3892 8.68869C25.4714 8.3038 25.4534 8.00827 25.315 8.35109C25.2448 8.26896 25.0936 8.28694 25.0115 8.39125L23.0115 10.9312C22.9294 11.0356 22.9473 11.1867 23.0517 11.2688C23.156 11.351 23.3071 11.333 23.3892 11.2287L25.3892 8.68869ZM11.737 18.6606C11.737 18.6606 10.5847 17.8199 9.80003 17.2427C9.64827 17.1266 9.36985 17.3886 9.25803 17.4979C9.17655 17.5776 9.20618 17.6482 9.20618 17.6482L10.3944 20.1423C10.3944 20.1423 10.622 20.637 10.8552 20.5186L11.0512 20.4232C11.0606 20.4195 11.07 20.4153 11.0794 20.4107L11.764 20.0709L11.737 18.6606ZM21.55 26.8601C21.55 26.8601 21.41 28.2801 21.32 29.2501C21.3082 29.3676 21.4899 29.4817 21.662 29.5274L21.6602 29.53C21.6602 29.53 21.7402 29.58 21.7602 29.57C21.8702 29.6 21.9402 29.51 21.9402 29.51L23.6002 27.12C23.6002 27.12 23.8102 26.8 23.5902 26.66L23.3402 26.5L23.3385 26.5025L22.73 26.1101L21.55 26.8601Z" fill="#635994"/> <path d="M23.0693 8.34048C23.0196 8.31066 23.0051 8.25315 23.0349 8.19351C23.0349 8.19351 23.0382 8.18744 23.0406 8.18341C23.1698 7.9647 23.4283 7.95476 23.6172 8.05418C23.8061 8.15359 23.9218 8.39271 23.7926 8.61142C23.7926 8.61142 23.7896 8.61514 23.7862 8.62084C23.7564 8.67055 23.701 8.68944 23.6563 8.66664L23.0693 8.34048Z" fill="white"/> <path d="M23.001 8.30159C23.0109 8.26182 23.0195 8.21838 23.0385 8.18459C23.128 8.02553 23.3191 7.96358 23.4483 8.03317C23.5776 8.10276 23.5975 8.29164 23.508 8.45071C23.4881 8.49047 23.4583 8.5203 23.4285 8.54018L23.001 8.30159Z" fill="#7D4533"/> <path d="M23.0747 8.34357C23.0747 8.3038 23.0846 8.26404 23.1045 8.22427C23.1542 8.1348 23.2636 8.09503 23.3332 8.1348C23.4028 8.17456 23.4227 8.28392 23.363 8.37339C23.3431 8.41316 23.3097 8.43831 23.2799 8.45819L23.0747 8.34357Z" fill="#7D4533"/> <path d="M23.2617 8.17376C23.2784 8.14541 23.2727 8.11118 23.2491 8.09729C23.2255 8.08341 23.1928 8.09513 23.1762 8.12348C23.1595 8.15183 23.1651 8.18606 23.1888 8.19994C23.2124 8.21383 23.245 8.2021 23.2617 8.17376Z" fill="white"/> <path d="M22.3993 9.26068C22.438 9.22654 22.4971 9.23023 22.5312 9.26893C22.6481 9.40141 22.8492 9.41551 22.9793 9.30068C23.018 9.26654 23.0771 9.27023 23.1112 9.30893C23.1453 9.34763 23.1417 9.40668 23.103 9.44083C22.8931 9.62601 22.5742 9.6001 22.3911 9.39258C22.3569 9.35388 22.3606 9.29483 22.3993 9.26068Z" fill="#990838"/> <path d="M27.4398 6.77011L26.2798 5.87011C25.5198 5.27011 24.4098 5.41011 23.8198 6.18011L23.2998 6.85011C23.1798 7.01011 23.1998 7.24011 23.3598 7.36011L26.7098 9.97011C26.8698 10.0901 27.0998 10.0701 27.2198 9.91011L27.7498 9.23011C28.3398 8.47011 28.1998 7.36011 27.4398 6.77011Z" fill="#00A6ED"/> <path d="M26.2904 8.10007L25.2704 7.31007C25.1404 7.21007 24.9504 7.23007 24.8504 7.36007C24.7504 7.49007 24.7704 7.68007 24.9004 7.78007L25.9204 8.57007C26.0504 8.67007 26.2404 8.65007 26.3404 8.52007C26.4404 8.39007 26.4204 8.20007 26.2904 8.10007Z" fill="#0074BA"/> <path d="M19.26 12.43L20.79 16L20.7922 15.999C20.8119 16.0474 20.8486 16.0901 20.8998 16.12L24.4998 18.16C24.5398 18.18 24.5798 18.19 24.6198 18.19C24.6998 18.19 24.7798 18.15 24.8298 18.07C24.8998 17.95 24.8598 17.81 24.7398 17.74L21.1966 15.7321L19.7 12.24C19.53 11.84 19.44 11.41 19.44 10.97V2H18.96V10.97C18.96 11.47 19.06 11.97 19.26 12.43Z" fill="#44911B"/> <path d="M18.8198 6.92999C18.8498 7.07999 18.9998 7.17999 19.1498 7.14999L19.7398 7.03999L19.6398 6.48999L19.0498 6.59999C18.8898 6.62999 18.7898 6.76999 18.8198 6.92999Z" fill="#FFC83D"/> <path d="M22.4002 12.4001L19.8202 13.0901L19.8002 13.1001C19.6002 13.1601 19.3802 13.1001 19.2202 12.9601L17.2902 11.0701C17.2402 10.9301 17.2102 10.7801 17.2002 10.6301C17.1702 10.3301 17.1802 10.0901 17.1802 10.0901C17.1902 9.95007 17.0702 9.83007 16.9302 9.82007C16.7902 9.81007 16.6702 9.93007 16.6602 10.0701C16.6602 10.0801 16.6502 10.2301 16.6602 10.4301C16.6602 10.4601 16.6302 10.4701 16.6102 10.4501C16.3202 10.1601 16.0402 9.75007 15.9302 9.58007C15.8602 9.47007 15.7102 9.44007 15.6002 9.51007C15.4902 9.58007 15.4602 9.73007 15.5302 9.84007C15.5402 9.85007 15.6802 10.0701 15.8802 10.3301C15.9002 10.3601 15.9302 10.3901 15.9502 10.4201C15.9602 10.4301 15.9502 10.4401 15.9502 10.4201C15.9402 10.4301 15.9502 10.4401 15.9502 10.4501C15.9402 10.4501 15.9302 10.4401 15.9502 10.4501C15.9402 10.4501 15.9302 10.4501 15.9302 10.4501C15.6102 10.1101 15.3902 9.80007 15.3802 9.79007C15.3002 9.68007 15.1602 9.66007 15.0502 9.74007C14.9402 9.82007 14.9202 9.96007 15.0002 10.0701C15.0002 10.0701 15.2402 10.3901 15.5002 10.6801C15.5102 10.6901 15.5002 10.7001 15.4902 10.6901L15.0502 10.3001C14.9502 10.2201 14.8002 10.2301 14.7202 10.3301C14.6302 10.4301 14.6502 10.5901 14.7502 10.6701L15.2502 11.0801C15.2602 11.0901 15.2502 11.1101 15.2302 11.1001C15.0702 10.9901 14.9602 10.9101 14.9602 10.9101C14.8502 10.8301 14.7102 10.8601 14.6302 10.9701C14.5502 11.0801 14.5802 11.2201 14.6902 11.3001C15.1602 11.6301 15.9302 12.1801 16.0202 12.2501L18.0002 14.1901C18.4402 14.6201 19.0302 14.8501 19.6302 14.8501C19.8402 14.8501 20.0602 14.8201 20.2702 14.7601L22.8502 14.0701L22.4002 12.4001Z" fill="#FFD7C2"/></svg>