<svg width="32" height="32" viewBox="0 0 32 32" fill="none" xmlns="http://www.w3.org/2000/svg"> <path d="M23.178 11.9242C23.3864 11.4886 23.5 11.0057 23.5 10.4943C23.5 9.82197 23.3011 9.19697 22.9508 8.67614C22.6004 8.1553 22.4205 7.53977 22.4205 6.9053V6.89583C22.4205 5.07765 20.9432 3.60038 19.125 3.60038C18.9451 3.60038 18.7746 3.51515 18.6705 3.37311C18.0833 2.53977 17.108 2 16 2C14.9015 2 13.9261 2.53977 13.3295 3.37311C13.2254 3.52462 13.0549 3.60985 12.875 3.60985C11.0568 3.60985 9.57955 5.08712 9.57955 6.9053V6.91477C9.57955 7.54924 9.39962 8.1553 9.04924 8.68561C8.70833 9.19697 8.5 9.82197 8.5 10.4943C8.5 11.0057 8.61364 11.4886 8.82197 11.9242C8.88826 12.0663 8.88826 12.2367 8.82197 12.3788C8.61364 12.8049 8.5 13.2784 8.5 13.7898C8.5 15.5606 9.93939 17 11.7102 17H20.2803C22.0511 17 23.4905 15.5606 23.4905 13.7898C23.4905 13.2879 23.3769 12.8049 23.1686 12.3788C23.1117 12.2367 23.1117 12.0663 23.178 11.9242Z" fill="#2D242D"/> <path d="M8.97479 20.5368C10.2567 19.4723 11.7843 18.6941 13.46 18.3002C13.74 18.2402 13.94 17.9802 13.94 17.6902V14.7302C13.94 13.6002 14.84 12.6902 15.96 12.6702C17.12 12.6502 18.06 13.6202 18.06 14.7702V17.6902C18.06 17.9802 18.26 18.2302 18.54 18.3002C20.1333 18.678 21.5927 19.4012 22.8344 20.3863C21.3064 21.9645 18.7389 23 15.8293 23C13.0132 23 10.5176 22.03 8.97479 20.5368Z" fill="#8B5C56"/> <path d="M27 28.9998C27 25.5798 25.44 22.5198 22.99 20.5098C21.46 22.5098 19.09 23.6798 16.58 23.6798H16H15.43C12.91 23.6798 10.54 22.5098 9.02 20.5098C6.57 22.5198 5 25.5698 5 28.9998V29.9998H27V28.9998Z" fill="#F4F4F4"/> <path d="M8.71426 20.0965C9.09736 19.6987 9.73042 19.6868 10.1282 20.0699L10.1313 20.0729C10.3667 20.2992 10.4672 20.613 10.4309 20.914C10.7143 20.8053 11.0435 20.8264 11.3206 20.9999L11.328 21.0044C11.6059 21.178 11.7691 21.4658 11.7948 21.769C12.051 21.6043 12.3789 21.5583 12.6861 21.6731L12.6943 21.6761C13.002 21.7907 13.2199 22.0407 13.3054 22.3334C13.5241 22.1207 13.837 22.0105 14.1613 22.0624L14.1699 22.0638C14.4944 22.1154 14.7574 22.3177 14.899 22.588C15.0716 22.3364 15.3568 22.1666 15.6851 22.1538L15.6911 22.1536C15.7938 22.1495 15.8934 22.1611 15.9878 22.1861C16.0798 22.1537 16.1782 22.1343 16.2809 22.1302L16.2842 22.1301C16.3869 22.126 16.4865 22.1376 16.5809 22.1626C16.6729 22.1302 16.7713 22.1108 16.874 22.1067L16.8795 22.1065C17.1547 22.0955 17.4084 22.1967 17.5963 22.3694C17.7344 22.1548 17.9543 21.9927 18.2233 21.9338L18.2309 21.9321C18.4997 21.873 18.7671 21.9281 18.9824 22.065C19.0806 21.8296 19.2683 21.6315 19.5225 21.5261L19.5297 21.5232C19.7835 21.4177 20.0559 21.4246 20.2917 21.521C20.3465 21.2724 20.4955 21.0446 20.7262 20.8957L20.7327 20.8915C20.9628 20.7428 21.2311 20.7005 21.4796 20.7523C21.4883 20.4989 21.5928 20.2486 21.7915 20.0605L21.7943 20.0579C22.1951 19.678 22.828 19.6949 23.208 20.0957C23.5879 20.4966 23.571 21.1295 23.1701 21.5094L23.1666 21.5128C22.9196 21.7466 22.5847 21.8299 22.2752 21.7658C22.264 22.0814 22.1039 22.3866 21.8186 22.5711L21.8104 22.5764C21.5254 22.7602 21.182 22.7808 20.8901 22.6618C20.822 22.9694 20.6101 23.24 20.2971 23.3701L20.2881 23.3738C19.9753 23.5034 19.6344 23.4625 19.3687 23.2939C19.2473 23.5841 18.9912 23.8127 18.6606 23.8854L18.6511 23.8875C18.3205 23.9599 17.9923 23.8597 17.7605 23.6471C17.59 23.9114 17.2979 24.0913 16.9597 24.1049L16.9532 24.1051C16.8505 24.1092 16.7509 24.0977 16.6565 24.0726C16.5645 24.105 16.4661 24.1244 16.3634 24.1285L16.36 24.1286C16.2574 24.1327 16.1578 24.1212 16.0634 24.0961C15.9714 24.1285 15.873 24.1479 15.7703 24.152L15.7632 24.1523C15.3646 24.1679 15.0115 23.948 14.8379 23.6168C14.6263 23.9251 14.2496 24.1016 13.8557 24.039L13.8449 24.0372C13.451 23.9741 13.148 23.689 13.0429 23.3301C12.7746 23.5908 12.3703 23.6896 11.9964 23.5504L11.9862 23.5466C11.6121 23.4068 11.3711 23.0669 11.3394 22.6938C11.0241 22.8963 10.6075 22.9125 10.2685 22.7008L10.2592 22.695C9.91998 22.4826 9.75208 22.1 9.79693 21.7273C9.44605 21.8618 9.03362 21.7921 8.74486 21.5143L8.74089 21.5105C8.34308 21.1274 8.33116 20.4943 8.71426 20.0965Z" fill="#F3EEF8"/> <path d="M23.6212 24C22.7412 24.01 22.0112 24.75 22.0112 25.65V25.7469C21.946 25.7545 21.8811 25.7659 21.8168 25.7812C21.6952 25.3044 21.2025 24.9134 20.5613 24.92L12.1613 25.02C11.5639 25.0262 11.1068 25.3737 10.9606 25.8057C10.9046 25.7933 10.8481 25.7838 10.7913 25.7772V25.6798C10.7913 24.7798 10.0613 24.0398 9.18129 24.0298H8.09129C8.04129 24.0298 7.99129 24.0798 8.00129 24.1298C8.05066 25.1172 8.86045 25.9193 9.86274 25.9394C9.72092 26.0109 9.58857 26.1045 9.47126 26.2199L8.70126 26.9899C8.66126 27.0299 8.66126 27.0899 8.70126 27.1299C9.45126 27.7999 10.6113 27.7899 11.3213 27.0699L11.3574 27.0338L13.4949 30H19.3461L21.4049 26.9633L21.4812 27.0397C22.1912 27.7597 23.3512 27.7697 24.1012 27.0997C24.1412 27.0597 24.1412 26.9997 24.1012 26.9597L23.3312 26.1897C23.2142 26.0745 23.0822 25.9811 22.9407 25.9096C23.9426 25.889 24.7519 25.0871 24.8012 24.1C24.8112 24.05 24.7612 24 24.7112 24H23.6212Z" fill="#44911B"/> <path d="M14.0601 25.2334L11.3501 26.3534L10.6901 24.7434C10.2801 23.7334 10.2801 22.6034 10.7101 21.5934C10.7901 21.4134 11.0001 21.3234 11.1801 21.4034C12.1801 21.8134 12.9801 22.6134 13.3901 23.6134L14.0601 25.2334Z" fill="#F70A8D"/> <path d="M18.23 25.3335L20.94 26.4535L21.6 24.8435C22.01 23.8335 22.01 22.7035 21.58 21.6935C21.5 21.5135 21.29 21.4235 21.11 21.5035C20.11 21.9135 19.31 22.7135 18.9 23.7135L18.23 25.3335Z" fill="#F70A8D"/> <path d="M8.63418 22.2558C8.51219 22.3145 8.46137 22.4809 8.53252 22.6375L9.26443 24.3504C9.46774 24.8202 9.86419 25.476 10.1996 25.7893C11.0129 26.5821 11.9989 26.6702 12.9341 26.2982C13.9507 25.8969 14.5911 25.0356 14.4894 23.8121C14.4691 23.5184 14.2963 22.9703 14.1946 22.6767C14.1743 22.6228 14.154 22.5714 14.1337 22.5201C14.1133 22.4687 14.093 22.4173 14.0727 22.3634L13.3712 20.7191C13.3001 20.5624 13.1476 20.4744 13.0155 20.5233C12.1209 20.8757 11.8871 22.4417 12.0802 23.8121C12.1107 24.047 11.8668 24.1547 11.7143 23.9589C10.8502 22.8528 9.52873 21.8936 8.63418 22.2558Z" fill="#FF6DC6"/> <path d="M23.3658 22.3559C23.4878 22.4146 23.5386 22.581 23.4675 22.7376L22.7356 24.4505C22.5323 24.9203 22.1358 25.5761 21.8004 25.8894C20.9871 26.6822 20.0011 26.7703 19.0659 26.3983C18.0493 25.997 17.4089 25.1357 17.5106 23.9122C17.5309 23.6185 17.7037 23.0704 17.8054 22.7768C17.8257 22.7229 17.846 22.6715 17.8664 22.6201C17.8867 22.5687 17.907 22.5174 17.9273 22.4635L18.6288 20.8192C18.6999 20.6625 18.8524 20.5745 18.9845 20.6234C19.8791 20.9758 20.1129 22.5418 19.9198 23.9122C19.8893 24.1471 20.1332 24.2548 20.2857 24.059C21.1498 22.9529 22.4713 21.9937 23.3658 22.3559Z" fill="#FF6DC6"/> <path d="M12.7794 23.1586C12.9297 22.481 13.621 22.0866 14.2823 22.299L14.8734 22.4911L14.8233 21.8944C14.7632 21.2168 15.2841 20.6201 15.9654 20.61C16.6567 20.5999 17.2077 21.1865 17.1476 21.8742L17.1075 22.4406L17.6786 22.2282C18.3198 21.9855 19.0311 22.3597 19.2115 23.0373C19.3818 23.6947 18.971 24.3723 18.2998 24.4936L17.7788 24.5948L18.2196 25.1207C18.6605 25.6466 18.5603 26.4557 17.9992 26.8501C17.4382 27.2446 16.6767 27.0726 16.3261 26.486L16.0556 26.0613L15.8452 26.4962C15.5246 27.0929 14.7632 27.2951 14.1921 26.9209C13.611 26.5467 13.4808 25.7477 13.9015 25.2016L14.3123 24.6656L13.7412 24.5847C13.07 24.4835 12.6292 23.8261 12.7794 23.1586Z" fill="#FFF478"/> <path d="M16.0601 25C16.6123 25 17.0601 24.5523 17.0601 24C17.0601 23.4477 16.6123 23 16.0601 23C15.5078 23 15.0601 23.4477 15.0601 24C15.0601 24.5523 15.5078 25 16.0601 25Z" fill="#FFB02E"/></svg>